<?xml version="1.0" encoding="UTF-8"?>
<svg width="160px" height="39px" viewBox="0 0 160 39" version="1.1" xmlns="http://www.w3.org/2000/svg" xmlns:xlink="http://www.w3.org/1999/xlink">
    <!-- Generator: Sketch 48.1 (47250) - http://www.bohemiancoding.com/sketch -->
    <title>58823fbaf2f7dc65748e01db_mighty_lockup_web</title>
    <desc>Created with Sketch.</desc>
    <defs></defs>
    <g id="NavSticky" stroke="none" stroke-width="1" fill="none" fill-rule="evenodd" transform="translate(-24.000000, -27.000000)">
        <g id="Group-7" fill-rule="nonzero">
            <g id="58823fbaf2f7dc65748e01db_mighty_lockup_web" transform="translate(24.000000, 27.000000)">
                <path d="M24.3072766,7.13342911 C24.4345195,6.96956211 24.6286619,6.87382571 24.8340435,6.87382571 L26.3743384,6.87382571 C26.7449618,6.87382571 27.0453407,7.17925747 27.0453407,7.55594758 L27.0453407,19.0300371 C27.1662951,19.0721937 27.1645557,19.0716498 27.2856439,19.1136704 L41.1195308,1.00643531 C41.2466399,0.839984513 41.4422542,0.742752228 41.6495089,0.742752228 L43.1899376,0.742752228 C43.5604273,0.742752228 43.8609399,1.048048 43.8609399,1.42460212 L43.8609399,15.2564725 C43.9572753,15.3071965 43.9756058,15.3167157 44.0719411,15.3674397 L51.420721,10.0967699 C51.5273589,10.2031135 51.5027399,10.1784994 51.6092439,10.284843 L40.6441427,26.7162832 C40.5191744,26.9032683 40.3112507,27.0153234 40.0887429,27.0153234 L38.518477,27.0153234 C38.1478535,27.0153234 37.8473409,26.7100277 37.8473409,26.3334735 L37.8473409,14.4843258 C37.7295976,14.4408093 37.7282596,14.4402653 37.6103827,14.3967488 L23.7148143,31.2566908 C23.5873038,31.4113106 23.3990486,31.5006555 23.2004908,31.5006555 L21.7135817,31.5006555 C21.3428245,31.5006555 21.0423118,31.1950877 21.0425794,30.8181256 L21.0503397,20.7878336 C20.9463778,20.7390135 20.9331317,20.7328939 20.829036,20.6840738 L0.192536858,38.6285298 C0.0755964731,38.5141629 0.117074184,38.5546877 0,38.4403208 L24.3072766,7.13342911 Z" id="Fill-1" fill="#00D369"></path>
                <path d="M71.4397305,25.9483968 L67.137181,13.9418099 L67.137181,25.7555529 C67.137181,26.0773809 66.8703512,26.3381945 66.541498,26.3381945 L62.5274218,26.3381945 C62.1982456,26.3381945 61.9310927,26.0773809 61.9310927,25.7555529 L61.9310927,6.06777265 C61.9310927,5.74594465 62.1982456,5.48481506 62.5274218,5.48481506 L68.312072,5.48481506 C68.565011,5.48481506 68.7898458,5.64067086 68.8741589,5.87366421 L73.4186644,18.459099 L77.9298968,5.87461262 C78.0138868,5.64130313 78.2393677,5.48481506 78.4923068,5.48481506 L84.2410998,5.48481506 C84.5699529,5.48481506 84.8371056,5.74594465 84.8371056,6.06777265 L84.8371056,25.7555529 C84.8371056,26.0773809 84.5699529,26.3381945 84.2410998,26.3381945 L80.1931044,26.3381945 C79.8636052,26.3381945 79.5967754,26.0773809 79.5967754,25.7555529 L79.5967754,13.9418099 L75.3278218,25.9471323 C75.2448009,26.1813902 75.0186739,26.3381945 74.7654118,26.3381945 L72.0021406,26.3381945 C71.7492014,26.3381945 71.5233976,26.1820225 71.4397305,25.9483968" id="Fill-3" fill="#0C1311"></path>
                <path d="M92.4668131,26.8503372 L88.2094891,26.8503372 C87.8803132,26.8503372 87.6138057,26.5895238 87.6138057,26.2673796 L87.6138057,12.1499424 C87.6138057,11.8277983 87.8803132,11.5666688 88.2094891,11.5666688 L92.4668131,11.5666688 C92.7959898,11.5666688 93.062819,11.8277983 93.062819,12.1499424 L93.062819,26.2673796 C93.062819,26.5895238 92.7959898,26.8503372 92.4668131,26.8503372 M90.3547877,10.2761954 C88.6892013,10.2761954 87.2665397,9.15517166 87.2665397,7.42337034 C87.2665397,5.65711001 88.6892013,4.53640249 90.3547877,4.53640249 C92.0206976,4.53640249 93.4440051,5.65711001 93.4440051,7.42337034 C93.4440051,9.15517166 92.0206976,10.2761954 90.3547877,10.2761954" id="Fill-5" fill="#0C1311"></path>
                <path d="M114.136343,5.48481506 L118.39399,5.48481506 C118.722843,5.48481506 118.989673,5.74594465 118.989673,6.06808879 L118.989673,12.3797744 C119.831834,11.4563367 121.295522,10.7570405 123.031854,10.7172072 C126.166296,10.6451278 128.706993,13.2090032 128.706993,16.2774339 L128.706993,25.7555529 C128.706993,26.0776971 128.440164,26.3385105 128.111311,26.3385105 L123.888874,26.3385105 C123.560021,26.3385105 123.293192,26.0776971 123.293192,25.7555529 L123.293192,17.6099536 C123.293192,16.353307 122.633547,15.4361919 121.245128,15.4361919 C120.168764,15.4361919 119.267486,16.047602 118.989673,17.1006561 L118.989673,25.7555529 C118.989673,26.0776971 118.722843,26.3385105 118.39399,26.3385105 L114.136343,26.3385105 C113.807166,26.3385105 113.540337,26.0776971 113.540337,25.7555529 L113.540337,6.06808879 C113.540337,5.74594465 113.807166,5.48481506 114.136343,5.48481506" id="Fill-7" fill="#0C1311"></path>
                <path d="M147.152554,31.0650826 L149.128257,26.0852844 L143.607529,11.9672149 C143.457963,11.5853208 143.746436,11.1752904 144.164125,11.1752904 L148.526114,11.1752904 C148.782283,11.1752904 149.009379,11.3355722 149.091108,11.5726753 L151.939338,19.8700207 L154.720053,11.5764689 C154.800167,11.337469 155.028555,11.1752904 155.286017,11.1752904 L159.403788,11.1752904 C159.821155,11.1752904 160.108982,11.5843724 159.960384,11.9659504 L152.362842,31.4836487 C152.274976,31.7100032 152.053371,31.8592201 151.806247,31.8592201 L147.707857,31.8592201 C147.288876,31.8592201 147.000403,31.4472929 147.152554,31.0650826" id="Fill-9" fill="#0C1311"></path>
                <path d="M133.146953,15.3048957 L130.771974,15.3048957 C130.468641,15.3048957 130.31649,14.9457636 130.530988,14.7358483 L137.94569,7.47985982 C138.160187,7.2699445 138.526836,7.41884528 138.526836,7.71538227 L138.526836,11.1612813 L141.278478,11.1612813 C141.56049,11.1612813 141.789202,11.3847905 141.789202,11.6610947 L141.789202,14.8047662 C141.789202,15.0807543 141.56049,15.3048957 141.278478,15.3048957 L138.526836,15.3048957 L138.526836,20.3994519 C138.526836,21.588129 139.116381,22.0974265 140.193068,22.0974265 C140.621741,22.0974265 141.087885,22.0256633 141.497498,21.9080602 C141.713288,21.8454649 141.928108,22.0079596 141.928108,22.2283075 L141.928108,25.8654697 C141.928108,26.1250186 141.754636,26.3516892 141.500728,26.4259815 C140.839468,26.6185093 139.885213,26.7506547 138.90899,26.7506547 C135.229259,26.7506547 133.146953,25.052364 133.146953,21.1803116 L133.146953,15.3048957 Z" id="Fill-11" fill="#0C1311"></path>
                <path d="M105.393229,20.6173698 C104.976832,21.3302599 104.109474,21.9078432 103.03311,21.9078432 C101.228617,21.9078432 100.152253,20.5835431 100.152253,18.6475169 C100.152253,16.7453175 101.228617,15.3868745 103.03311,15.3868745 C104.109474,15.3868745 104.976832,15.9979684 105.393229,16.6773479 L105.393229,20.6173698 Z M99.8169388,27.3650091 L97.1166603,30.0072865 C96.8695357,30.2494478 96.8821342,30.6512586 97.1528406,30.8674967 C98.5147708,31.9546937 100.409714,32.5385996 102.651279,32.5385996 C107.406082,32.5385996 110.773112,29.9573368 110.773112,24.5909023 L110.773112,12.0980959 C110.773112,11.7759517 110.505959,11.5148222 110.177106,11.5148222 L105.989235,11.5148222 C105.660059,11.5148222 105.393229,11.7759517 105.393229,12.0980959 L105.393229,12.6696725 C104.699342,11.8543539 103.415588,11.1752904 101.679256,11.1752904 C97.3075759,11.1752904 94.7733393,14.4697596 94.7733393,18.6475169 C94.7733393,22.859101 97.3075759,26.1535701 101.679256,26.1535701 C103.415588,26.1535701 104.699342,25.4400477 105.393229,24.6588719 L105.393229,25.7457527 C105.393229,27.7497484 104.352076,28.6327205 102.651279,28.6327205 C101.524197,28.6327205 100.752458,28.235968 100.356413,27.4411982 C100.256917,27.2413994 99.9774891,27.2078888 99.8169388,27.3650091 Z" id="Fill-13" fill="#0C1311"></path>
            </g>
        </g>
    </g>
</svg>